<?xml version="1.0" standalone="no"?>
<!DOCTYPE svg PUBLIC "-//W3C//DTD SVG 20010904//EN"
 "http://www.w3.org/TR/2001/REC-SVG-20010904/DTD/svg10.dtd">
<svg version="1.0" xmlns="http://www.w3.org/2000/svg"
 width="511.000000pt" height="511.000000pt" viewBox="0 0 511.000000 511.000000"
 preserveAspectRatio="xMidYMid meet">
<metadata>
Created by potrace 1.14, written by Peter Selinger 2001-2017
</metadata>
<g transform="translate(0.000000,511.000000) scale(0.100000,-0.100000)"
fill="#000000" stroke="none">
<path d="M4829 4270 c-39 -11 -94 -38 -204 -101 -55 -31 -122 -69 -150 -84
-306 -169 -700 -401 -1090 -640 -569 -350 -1255 -799 -1255 -823 0 -11 -11
-13 -52 -8 -380 45 -550 13 -712 -135 -88 -81 -200 -243 -318 -459 -20 -36
-45 -81 -57 -100 -11 -19 -28 -48 -37 -65 -76 -137 -215 -303 -317 -381 -123
-93 -224 -128 -445 -152 -166 -19 -220 -74 -156 -160 202 -267 613 -374 1104
-288 423 75 809 311 1041 636 65 90 154 264 188 366 33 100 62 260 67 373 2
58 7 108 12 111 4 4 52 26 107 50 182 78 478 213 710 323 162 77 746 370 860
432 39 21 108 58 155 83 195 104 447 246 514 289 142 92 264 241 296 363 61
229 -74 421 -261 370z"/>
</g>
</svg>
